%TF.GenerationSoftware,KiCad,Pcbnew,(6.0.10)*%
%TF.CreationDate,2023-01-14T17:24:48+01:00*%
%TF.ProjectId,transistor_party,7472616e-7369-4737-946f-725f70617274,rev?*%
%TF.SameCoordinates,Original*%
%TF.FileFunction,Soldermask,Bot*%
%TF.FilePolarity,Negative*%
%FSLAX46Y46*%
G04 Gerber Fmt 4.6, Leading zero omitted, Abs format (unit mm)*
G04 Created by KiCad (PCBNEW (6.0.10)) date 2023-01-14 17:24:48*
%MOMM*%
%LPD*%
G01*
G04 APERTURE LIST*
%ADD10R,1.700000X1.700000*%
%ADD11O,1.700000X1.700000*%
G04 APERTURE END LIST*
D10*
%TO.C,J55*%
X54475000Y-125000000D03*
D11*
X57015000Y-125000000D03*
X59555000Y-125000000D03*
%TD*%
%TO.C,J49*%
X58000000Y-120540000D03*
X58000000Y-118000000D03*
D10*
X58000000Y-115460000D03*
%TD*%
D11*
%TO.C,J52*%
X102937500Y-120540000D03*
X102937500Y-118000000D03*
D10*
X102937500Y-115460000D03*
%TD*%
D11*
%TO.C,J51*%
X88000000Y-120540000D03*
X88000000Y-118000000D03*
D10*
X88000000Y-115460000D03*
%TD*%
D11*
%TO.C,J50*%
X72937500Y-120540000D03*
X72937500Y-118000000D03*
D10*
X72937500Y-115460000D03*
%TD*%
D11*
%TO.C,J53*%
X118000000Y-120540000D03*
X118000000Y-118000000D03*
D10*
X118000000Y-115460000D03*
%TD*%
D11*
%TO.C,J54*%
X132937500Y-120540000D03*
X132937500Y-118000000D03*
D10*
X132937500Y-115460000D03*
%TD*%
D11*
%TO.C,J25*%
X58062500Y-80540000D03*
X58062500Y-78000000D03*
D10*
X58062500Y-75460000D03*
%TD*%
D11*
%TO.C,J28*%
X103000000Y-80540000D03*
X103000000Y-78000000D03*
D10*
X103000000Y-75460000D03*
%TD*%
D11*
%TO.C,J37*%
X58062500Y-100540000D03*
X58062500Y-98000000D03*
D10*
X58062500Y-95460000D03*
%TD*%
D11*
%TO.C,J40*%
X103000000Y-100540000D03*
X103000000Y-98000000D03*
D10*
X103000000Y-95460000D03*
%TD*%
D11*
%TO.C,J31*%
X58062500Y-90540000D03*
X58062500Y-88000000D03*
D10*
X58062500Y-85460000D03*
%TD*%
D11*
%TO.C,J34*%
X103000000Y-90540000D03*
X103000000Y-88000000D03*
D10*
X103000000Y-85460000D03*
%TD*%
D11*
%TO.C,J33*%
X88062500Y-90540000D03*
X88062500Y-88000000D03*
D10*
X88062500Y-85460000D03*
%TD*%
D11*
%TO.C,J39*%
X88062500Y-100540000D03*
X88062500Y-98000000D03*
D10*
X88062500Y-95460000D03*
%TD*%
D11*
%TO.C,J38*%
X73000000Y-100540000D03*
X73000000Y-98000000D03*
D10*
X73000000Y-95460000D03*
%TD*%
D11*
%TO.C,J42*%
X133000000Y-100540000D03*
X133000000Y-98000000D03*
D10*
X133000000Y-95460000D03*
%TD*%
D11*
%TO.C,J41*%
X118062500Y-100540000D03*
X118062500Y-98000000D03*
D10*
X118062500Y-95460000D03*
%TD*%
D11*
%TO.C,J32*%
X73000000Y-90540000D03*
X73000000Y-88000000D03*
D10*
X73000000Y-85460000D03*
%TD*%
D11*
%TO.C,J35*%
X118062500Y-90540000D03*
X118062500Y-88000000D03*
D10*
X118062500Y-85460000D03*
%TD*%
D11*
%TO.C,J36*%
X133000000Y-90540000D03*
X133000000Y-88000000D03*
D10*
X133000000Y-85460000D03*
%TD*%
D11*
%TO.C,J43*%
X58062500Y-110540000D03*
X58062500Y-108000000D03*
D10*
X58062500Y-105460000D03*
%TD*%
D11*
%TO.C,J46*%
X103000000Y-110540000D03*
X103000000Y-108000000D03*
D10*
X103000000Y-105460000D03*
%TD*%
D11*
%TO.C,J45*%
X88062500Y-110540000D03*
X88062500Y-108000000D03*
D10*
X88062500Y-105460000D03*
%TD*%
D11*
%TO.C,J44*%
X73000000Y-110540000D03*
X73000000Y-108000000D03*
D10*
X73000000Y-105460000D03*
%TD*%
D11*
%TO.C,J47*%
X118062500Y-110540000D03*
X118062500Y-108000000D03*
D10*
X118062500Y-105460000D03*
%TD*%
D11*
%TO.C,J48*%
X133000000Y-110540000D03*
X133000000Y-108000000D03*
D10*
X133000000Y-105460000D03*
%TD*%
D11*
%TO.C,J27*%
X88062500Y-80540000D03*
X88062500Y-78000000D03*
D10*
X88062500Y-75460000D03*
%TD*%
D11*
%TO.C,J26*%
X73000000Y-80540000D03*
X73000000Y-78000000D03*
D10*
X73000000Y-75460000D03*
%TD*%
D11*
%TO.C,J30*%
X133000000Y-80540000D03*
X133000000Y-78000000D03*
D10*
X133000000Y-75460000D03*
%TD*%
D11*
%TO.C,J29*%
X118062500Y-80540000D03*
X118062500Y-78000000D03*
D10*
X118062500Y-75460000D03*
%TD*%
D11*
%TO.C,J13*%
X58062500Y-60540000D03*
X58062500Y-58000000D03*
D10*
X58062500Y-55460000D03*
%TD*%
D11*
%TO.C,J16*%
X103000000Y-60540000D03*
X103000000Y-58000000D03*
D10*
X103000000Y-55460000D03*
%TD*%
D11*
%TO.C,J19*%
X58062500Y-70540000D03*
X58062500Y-68000000D03*
D10*
X58062500Y-65460000D03*
%TD*%
D11*
%TO.C,J22*%
X103000000Y-70540000D03*
X103000000Y-68000000D03*
D10*
X103000000Y-65460000D03*
%TD*%
D11*
%TO.C,J21*%
X88062500Y-70540000D03*
X88062500Y-68000000D03*
D10*
X88062500Y-65460000D03*
%TD*%
D11*
%TO.C,J20*%
X73000000Y-70540000D03*
X73000000Y-68000000D03*
D10*
X73000000Y-65460000D03*
%TD*%
D11*
%TO.C,J23*%
X118062500Y-70540000D03*
X118062500Y-68000000D03*
D10*
X118062500Y-65460000D03*
%TD*%
D11*
%TO.C,J24*%
X133000000Y-70540000D03*
X133000000Y-68000000D03*
D10*
X133000000Y-65460000D03*
%TD*%
D11*
%TO.C,J15*%
X88062500Y-60540000D03*
X88062500Y-58000000D03*
D10*
X88062500Y-55460000D03*
%TD*%
D11*
%TO.C,J14*%
X73000000Y-60540000D03*
X73000000Y-58000000D03*
D10*
X73000000Y-55460000D03*
%TD*%
D11*
%TO.C,J18*%
X133000000Y-60540000D03*
X133000000Y-58000000D03*
D10*
X133000000Y-55460000D03*
%TD*%
D11*
%TO.C,J17*%
X118062500Y-60540000D03*
X118062500Y-58000000D03*
D10*
X118062500Y-55460000D03*
%TD*%
D11*
%TO.C,J7*%
X58062500Y-50540000D03*
X58062500Y-48000000D03*
D10*
X58062500Y-45460000D03*
%TD*%
D11*
%TO.C,J10*%
X103000000Y-50540000D03*
X103000000Y-48000000D03*
D10*
X103000000Y-45460000D03*
%TD*%
D11*
%TO.C,J9*%
X88062500Y-50540000D03*
X88062500Y-48000000D03*
D10*
X88062500Y-45460000D03*
%TD*%
D11*
%TO.C,J8*%
X73000000Y-50540000D03*
X73000000Y-48000000D03*
D10*
X73000000Y-45460000D03*
%TD*%
D11*
%TO.C,J12*%
X133000000Y-50540000D03*
X133000000Y-48000000D03*
D10*
X133000000Y-45460000D03*
%TD*%
D11*
%TO.C,J11*%
X118062500Y-50540000D03*
X118062500Y-48000000D03*
D10*
X118062500Y-45460000D03*
%TD*%
D11*
%TO.C,J6*%
X133000000Y-40540000D03*
X133000000Y-38000000D03*
D10*
X133000000Y-35460000D03*
%TD*%
D11*
%TO.C,J5*%
X118062500Y-40540000D03*
X118062500Y-38000000D03*
D10*
X118062500Y-35460000D03*
%TD*%
D11*
%TO.C,J3*%
X88062500Y-40540000D03*
X88062500Y-38000000D03*
D10*
X88062500Y-35460000D03*
%TD*%
D11*
%TO.C,J4*%
X103000000Y-40540000D03*
X103000000Y-38000000D03*
D10*
X103000000Y-35460000D03*
%TD*%
D11*
%TO.C,J2*%
X73000000Y-40540000D03*
X73000000Y-38000000D03*
D10*
X73000000Y-35460000D03*
%TD*%
D11*
%TO.C,J1*%
X58062500Y-40540000D03*
X58062500Y-38000000D03*
D10*
X58062500Y-35460000D03*
%TD*%
M02*
